{
    "asset" : {
        "generator" : "Khronos glTF Blender I/O v1.8.19",
        "version" : "2.0"
    },
    "scene" : 0,
    "scenes" : [
        {
            "extras" : {
                "blosm" : {
                    "defaultLevels" : [
                        {
                            "levels" : 4,
                            "weight" : 10
                        },
                        {
                            "levels" : 5,
                            "weight" : 40
                        },
                        {
                            "levels" : 6,
                            "weight" : 10
                        }
                    ],
                    "minLon" : 27.56723976135254,
                    "minLat" : 53.90361022949219,
                    "maxLon" : 27.568510055541992,
                    "maxLat" : 53.9044189453125
                },
                "lat" : 53.904014587402344,
                "lon" : 27.567874908447266,
                "automirror" : {},
                "UVPackerProps" : {
                    "uvp_engine" : 1,
                    "uvp_width" : 512,
                    "uvp_height" : 512,
                    "uvp_stats" : "0.0% \u00a6 1.45s"
                }
            },
            "name" : "Scene",
            "nodes" : [
                0,
                1
            ]
        }
    ],
    "nodes" : [
        {
            "extras" : {
                "footprint" : "true",
                "targetPoint" : "{\"lng\":27.56787098944187,\"lat\":53.90404898018615}",
                "id" : 9095642,
                "countryCode" : "BLR"
            },
            "mesh" : 0,
            "name" : "mapbox_footprint"
        },
        {
            "mesh" : 1,
            "name" : "BLR_25326656_Belarusian_State_Circus"
        }
    ],
    "materials" : [
        {
            "alphaMode" : "BLEND",
            "doubleSided" : true,
            "name" : "Material_0",
            "pbrMetallicRoughness" : {
                "baseColorFactor" : [
                    1,
                    0,
                    0,
                    0.8999999761581421
                ],
                "metallicFactor" : 0.5,
                "roughnessFactor" : 0.5
            }
        },
        {
            "doubleSided" : true,
            "emissiveFactor" : [
                1,
                1,
                1
            ],
            "emissiveTexture" : {
                "index" : 0
            },
            "name" : "Occlusion",
            "occlusionTexture" : {
                "index" : 1
            },
            "pbrMetallicRoughness" : {}
        }
    ],
    "meshes" : [
        {
            "name" : "Mesh_0",
            "primitives" : [
                {
                    "attributes" : {
                        "POSITION" : 0,
                        "NORMAL" : 1,
                        "TEXCOORD_0" : 2
                    },
                    "indices" : 3,
                    "material" : 0
                }
            ]
        },
        {
            "name" : "Object",
            "primitives" : [
                {
                    "attributes" : {
                        "POSITION" : 4,
                        "NORMAL" : 5,
                        "TEXCOORD_0" : 6
                    },
                    "indices" : 7,
                    "material" : 1
                }
            ]
        }
    ],
    "textures" : [
        {
            "sampler" : 0,
            "source" : 0
        },
        {
            "sampler" : 0,
            "source" : 0
        }
    ],
    "images" : [
        {
            "bufferView" : 8,
            "mimeType" : "image/png",
            "name" : "25326656_AO"
        }
    ],
    "accessors" : [
        {
            "bufferView" : 0,
            "componentType" : 5126,
            "count" : 474,
            "max" : [
                38.172969818115234,
                39.007755279541016,
                2.388516020710406e-15
            ],
            "min" : [
                -38.172969818115234,
                -39.00742721557617,
                -0.10000000149011612
            ],
            "type" : "VEC3"
        },
        {
            "bufferView" : 1,
            "componentType" : 5126,
            "count" : 474,
            "type" : "VEC3"
        },
        {
            "bufferView" : 2,
            "componentType" : 5126,
            "count" : 474,
            "type" : "VEC2"
        },
        {
            "bufferView" : 3,
            "componentType" : 5123,
            "count" : 474,
            "type" : "SCALAR"
        },
        {
            "bufferView" : 4,
            "componentType" : 5126,
            "count" : 11910,
            "max" : [
                36.52646255493164,
                41.985286712646484,
                37.19083023071289
            ],
            "min" : [
                -40.33804702758789,
                -37.400508880615234,
                -0.10178697109222412
            ],
            "type" : "VEC3"
        },
        {
            "bufferView" : 5,
            "componentType" : 5126,
            "count" : 11910,
            "type" : "VEC3"
        },
        {
            "bufferView" : 6,
            "componentType" : 5126,
            "count" : 11910,
            "type" : "VEC2"
        },
        {
            "bufferView" : 7,
            "componentType" : 5123,
            "count" : 25926,
            "type" : "SCALAR"
        }
    ],
    "bufferViews" : [
        {
            "buffer" : 0,
            "byteLength" : 5688,
            "byteOffset" : 0
        },
        {
            "buffer" : 0,
            "byteLength" : 5688,
            "byteOffset" : 5688
        },
        {
            "buffer" : 0,
            "byteLength" : 3792,
            "byteOffset" : 11376
        },
        {
            "buffer" : 0,
            "byteLength" : 948,
            "byteOffset" : 15168
        },
        {
            "buffer" : 0,
            "byteLength" : 142920,
            "byteOffset" : 16116
        },
        {
            "buffer" : 0,
            "byteLength" : 142920,
            "byteOffset" : 159036
        },
        {
            "buffer" : 0,
            "byteLength" : 95280,
            "byteOffset" : 301956
        },
        {
            "buffer" : 0,
            "byteLength" : 51852,
            "byteOffset" : 397236
        },
        {
            "buffer" : 0,
            "byteLength" : 259240,
            "byteOffset" : 449088
        }
    ],
    "samplers" : [
        {
            "magFilter" : 9729,
            "minFilter" : 9987
        }
    ],
    "buffers" : [
        {
            "byteLength" : 708328,
            "uri" : "data:application/octet-stream;base64,"
        }
    ]
}
