{
    "asset" : {
        "generator" : "Khronos glTF Blender I/O v3.3.36",
        "version" : "2.0"
    },
    "scene" : 0,
    "scenes" : [
        {
            "extras" : {
                "blosm" : {
                    "defaultLevels" : [
                        {
                            "levels" : 4,
                            "weight" : 10
                        },
                        {
                            "levels" : 5,
                            "weight" : 40
                        },
                        {
                            "levels" : 6,
                            "weight" : 10
                        }
                    ],
                    "minLon" : -0.1253799945116043,
                    "minLat" : 51.4865608215332,
                    "maxLon" : -0.12329000234603882,
                    "maxLat" : 51.48783874511719,
                    "dataType" : 2,
                    "overlayType" : 2
                },
                "lat" : 51.506919860839844,
                "lon" : -0.11395999789237976,
                "addon_properties" : {},
                "automirror" : {}
            },
            "name" : "Scene",
            "nodes" : [
                0
            ]
        }
    ],
    "nodes" : [
        {
            "mesh" : 0,
            "name" : "Cube.001",
            "scale" : [
                1.1912094354629517,
                1.1912094354629517,
                1.1912094354629517
            ],
            "translation" : [
                1.1248520612716675,
                0.11868960410356522,
                1.4839526414871216
            ]
        }
    ],
    "materials" : [
        {
            "doubleSided" : true,
            "name" : "wall_stone_0",
            "occlusionTexture" : {
                "index" : 0
            },
            "pbrMetallicRoughness" : {
                "baseColorFactor" : [
                    0.18865558505058289,
                    0.18865558505058289,
                    0.18865558505058289,
                    1
                ],
                "metallicFactor" : 0
            }
        }
    ],
    "meshes" : [
        {
            "name" : "Cube.005",
            "primitives" : [
                {
                    "attributes" : {
                        "POSITION" : 0,
                        "NORMAL" : 1,
                        "TEXCOORD_0" : 2,
                        "COLOR_0" : 3
                    },
                    "indices" : 4,
                    "material" : 0
                }
            ]
        }
    ],
    "textures" : [
        {
            "sampler" : 0,
            "source" : 0
        }
    ],
    "images" : [
        {
            "bufferView" : 5,
            "mimeType" : "image/png",
            "name" : "gf"
        }
    ],
    "accessors" : [
        {
            "bufferView" : 0,
            "componentType" : 5126,
            "count" : 8231,
            "max" : [
                29.352867126464844,
                17.194488525390625,
                42.97046661376953
            ],
            "min" : [
                -45.85629653930664,
                4.3161011831216456e-07,
                -48.895713806152344
            ],
            "type" : "VEC3"
        },
        {
            "bufferView" : 1,
            "componentType" : 5126,
            "count" : 8231,
            "type" : "VEC3"
        },
        {
            "bufferView" : 2,
            "componentType" : 5126,
            "count" : 8231,
            "type" : "VEC2"
        },
        {
            "bufferView" : 3,
            "componentType" : 5123,
            "count" : 8231,
            "normalized" : true,
            "type" : "VEC4"
        },
        {
            "bufferView" : 4,
            "componentType" : 5123,
            "count" : 12675,
            "type" : "SCALAR"
        }
    ],
    "bufferViews" : [
        {
            "buffer" : 0,
            "byteLength" : 98772,
            "byteOffset" : 0,
            "target" : 34962
        },
        {
            "buffer" : 0,
            "byteLength" : 98772,
            "byteOffset" : 98772,
            "target" : 34962
        },
        {
            "buffer" : 0,
            "byteLength" : 65848,
            "byteOffset" : 197544,
            "target" : 34962
        },
        {
            "buffer" : 0,
            "byteLength" : 65848,
            "byteOffset" : 263392,
            "target" : 34962
        },
        {
            "buffer" : 0,
            "byteLength" : 25350,
            "byteOffset" : 329240,
            "target" : 34963
        },
        {
            "buffer" : 0,
            "byteLength" : 249471,
            "byteOffset" : 354592
        }
    ],
    "samplers" : [
        {
            "magFilter" : 9729,
            "minFilter" : 9987
        }
    ],
    "buffers" : [
        {
            "byteLength" : 604064,
            "uri" : "data:application/octet-stream;base64,"
        }
    ]
}
