{
    "asset" : {
        "generator" : "Khronos glTF Blender I/O v3.3.36",
        "version" : "2.0"
    },
    "scene" : 0,
    "scenes" : [
        {
            "extras" : {
                "blosm" : {
                    "defaultLevels" : [
                        {
                            "levels" : 4,
                            "weight" : 10
                        },
                        {
                            "levels" : 5,
                            "weight" : 40
                        },
                        {
                            "levels" : 6,
                            "weight" : 10
                        }
                    ],
                    "minLon" : -0.1253799945116043,
                    "minLat" : 51.4865608215332,
                    "maxLon" : -0.12329000234603882,
                    "maxLat" : 51.48783874511719,
                    "dataType" : 2,
                    "overlayType" : 2
                },
                "lat" : 51.506919860839844,
                "lon" : -0.11395999789237976,
                "addon_properties" : {},
                "automirror" : {}
            },
            "name" : "Scene",
            "nodes" : [
                0
            ]
        }
    ],
    "nodes" : [
        {
            "mesh" : 0,
            "name" : "Cube.001",
            "scale" : [
                1.1912094354629517,
                1.1912094354629517,
                1.1912094354629517
            ],
            "translation" : [
                1.1248520612716675,
                0.11868960410356522,
                1.4839526414871216
            ]
        }
    ],
    "materials" : [
        {
            "doubleSided" : true,
            "name" : "wall_stone_0",
            "occlusionTexture" : {
                "index" : 0
            },
            "pbrMetallicRoughness" : {
                "baseColorFactor" : [
                    0.18865558505058289,
                    0.18865558505058289,
                    0.18865558505058289,
                    1
                ],
                "metallicFactor" : 0
            }
        }
    ],
    "meshes" : [
        {
            "name" : "Cube.005",
            "primitives" : [
                {
                    "attributes" : {
                        "POSITION" : 0,
                        "NORMAL" : 1,
                        "TEXCOORD_0" : 2,
                        "COLOR_0" : 3
                    },
                    "indices" : 4,
                    "material" : 0
                }
            ]
        }
    ],
    "textures" : [
        {
            "sampler" : 0,
            "source" : 0
        }
    ],
    "images" : [
        {
            "bufferView" : 5,
            "mimeType" : "image/png",
            "name" : "gf"
        }
    ],
    "accessors" : [
        {
            "bufferView" : 0,
            "componentType" : 5126,
            "count" : 8217,
            "max" : [
                29.929527282714844,
                17.194488525390625,
                43.54712677001953
            ],
            "min" : [
                -46.43294143676758,
                3.5762786865234375e-07,
                -49.472354888916016
            ],
            "type" : "VEC3"
        },
        {
            "bufferView" : 1,
            "componentType" : 5126,
            "count" : 8217,
            "type" : "VEC3"
        },
        {
            "bufferView" : 2,
            "componentType" : 5126,
            "count" : 8217,
            "type" : "VEC2"
        },
        {
            "bufferView" : 3,
            "componentType" : 5123,
            "count" : 8217,
            "normalized" : true,
            "type" : "VEC4"
        },
        {
            "bufferView" : 4,
            "componentType" : 5123,
            "count" : 12651,
            "type" : "SCALAR"
        }
    ],
    "bufferViews" : [
        {
            "buffer" : 0,
            "byteLength" : 98604,
            "byteOffset" : 0,
            "target" : 34962
        },
        {
            "buffer" : 0,
            "byteLength" : 98604,
            "byteOffset" : 98604,
            "target" : 34962
        },
        {
            "buffer" : 0,
            "byteLength" : 65736,
            "byteOffset" : 197208,
            "target" : 34962
        },
        {
            "buffer" : 0,
            "byteLength" : 65736,
            "byteOffset" : 262944,
            "target" : 34962
        },
        {
            "buffer" : 0,
            "byteLength" : 25302,
            "byteOffset" : 328680,
            "target" : 34963
        },
        {
            "buffer" : 0,
            "byteLength" : 249471,
            "byteOffset" : 353984
        }
    ],
    "samplers" : [
        {
            "magFilter" : 9729,
            "minFilter" : 9987
        }
    ],
    "buffers" : [
        {
            "byteLength" : 603456,
            "uri" : "data:application/octet-stream;base64,"
        }
    ]
}
